<svg width="24" height="24" viewBox="0 0 24 24" fill="none" xmlns="http://www.w3.org/2000/svg">
<path fill-rule="evenodd" clip-rule="evenodd" d="M8.32 0H15.68C22.4 0 24 1.6 24 8.32V15.68C24 22.4 22.4 24 15.68 24H8.32C1.6 24 0 22.4 0 15.68V8.32C0 1.6 1.6 0 8.32 0Z" fill="#2787F5"/>
<path fill-rule="evenodd" clip-rule="evenodd" d="M19.6542 8.26828C19.7654 7.89747 19.6543 7.625 19.125 7.625H17.375C16.9301 7.625 16.7249 7.86037 16.6137 8.11992C16.6137 8.11992 15.7237 10.2891 14.463 11.6981C14.0552 12.106 13.8697 12.2358 13.6472 12.2358C13.536 12.2358 13.375 12.106 13.375 11.7352V8.26828C13.375 7.82331 13.2459 7.625 12.875 7.625H10.125C9.84696 7.625 9.67973 7.83152 9.67973 8.02725C9.67973 8.44907 10.3101 8.54634 10.375 9.73292V12.31C10.375 12.875 10.273 12.9774 10.0505 12.9774C9.45725 12.9774 8.01415 10.7986 7.15825 8.30534C6.99052 7.82075 6.82228 7.625 6.37503 7.625H4.62503C4.12503 7.625 4.02502 7.86037 4.02502 8.11992C4.02502 8.58344 4.61831 10.8824 6.78748 13.923C8.23357 15.9994 10.271 17.125 12.125 17.125C13.2374 17.125 13.375 16.875 13.375 16.4444V14.875C13.375 14.375 13.4804 14.2752 13.8327 14.2752C14.0922 14.2752 14.5372 14.405 15.5754 15.4061C16.762 16.5927 16.9576 17.125 17.625 17.125H19.375C19.875 17.125 20.125 16.875 19.9808 16.3816C19.823 15.8899 19.2565 15.1765 18.5048 14.3308C18.0969 13.8488 17.4851 13.3297 17.2996 13.0701C17.0401 12.7364 17.1142 12.5881 17.2996 12.2914C17.2996 12.2914 19.4318 9.28796 19.6542 8.26828V8.26828Z" fill="white"/>
</svg>
